<svg xmlns="http://www.w3.org/2000/svg" width="32" height="32" viewBox="0 0 32 32">
    <g fill="none" fill-rule="evenodd">
        <g fill="#000">
            <g transform="translate(-114 -456) translate(114 456)">
                <circle cx="16" cy="16" r="16" fill-opacity=".04"/>
                <path fill-opacity=".8" fill-rule="nonzero" d="M16.47 7.5c1.671 0 3.399.54 5.18 1.612.236.142.313.45.17.686-.142.237-.45.313-.686.17C19.501 8.987 17.947 8.5 16.47 8.5c-1.51 0-2.88.255-4.111.765-.255.105-.548-.016-.653-.271-.106-.255.016-.548.27-.653 1.357-.561 2.856-.841 4.494-.841zM15.83 10.053c2.652 0 5.14 1.134 7.448 3.375.198.193.203.51.01.708-.192.198-.508.202-.706.01-2.132-2.07-4.377-3.093-6.751-3.093-2.376 0-4.528.956-6.48 2.89-.195.193-.512.192-.706-.004-.195-.196-.193-.513.003-.707 2.132-2.112 4.533-3.179 7.183-3.179zM16.166 17.763c.27.06.44.326.38.596-.22 1.002.043 1.861.814 2.634.78.783 2.034 1.168 3.79 1.13.276-.006.504.212.51.488.006.277-.213.505-.489.511-2.005.044-3.52-.421-4.52-1.423-1.007-1.01-1.375-2.215-1.081-3.555.053-.24.27-.401.506-.392l.09.011z"/>
                <path fill-opacity=".8" fill-rule="nonzero" d="M15.982 12.67c2.23.076 4.308 1.248 5.832 3.043.978 1.153 1.543 2.629 1.376 3.507-.193 1.013-.9 1.645-1.789 1.715-.958.075-1.907-.534-2.283-1.69l-.055-.187c-.266-1.027-.742-1.892-1.157-2.212-.462-.357-.808-.469-1.633-.56-1.21-.135-2.065.565-2.35 1.767-.256 1.076-.125 2.242.314 3.365.748 1.914 2.313 2.974 4.779 3.203.275.026.477.27.451.544-.025.275-.269.478-.544.452-2.824-.262-4.724-1.549-5.618-3.835-.508-1.3-.662-2.67-.355-3.96.395-1.666 1.687-2.725 3.434-2.53.99.11 1.502.275 2.133.762.618.477 1.197 1.53 1.514 2.753.207.798.758 1.173 1.292 1.13.44-.034.776-.334.885-.904.101-.535-.356-1.729-1.157-2.672-1.353-1.595-3.181-2.626-5.103-2.691-2.466-.083-4.379 1.624-4.914 4.693-.114.659-.033 1.827.252 3.478l.124.687c.052.27-.126.533-.397.584-.272.052-.534-.126-.585-.397l-.132-.726c-.06-.35-.111-.679-.154-.99l-.074-.595c-.104-.948-.11-1.683-.019-2.212.601-3.449 2.826-5.512 5.699-5.525l.234.004z"/>
            </g>
        </g>
    </g>
</svg>
