<svg xmlns="http://www.w3.org/2000/svg" width="32" height="32" viewBox="0 0 32 32">
    <g fill="none" fill-rule="evenodd">
        <g fill="#000">
            <g transform="translate(-114 -176) translate(114 176)">
                <circle cx="16" cy="16" r="16" fill-opacity=".04"/>
                <path fill-opacity=".8" fill-rule="nonzero" d="M24.473 15.121c.29 0 .527-.236.527-.527 0-.291-.236-.528-.527-.528h-2.32V12.31h2.32c.29 0 .527-.237.527-.528 0-.291-.236-.527-.527-.527h-2.32v-.352c0-.581-.474-1.054-1.055-1.054h-.352v-2.32c0-.292-.236-.528-.527-.528-.291 0-.528.236-.528.527v2.32h-1.757v-2.32c0-.29-.237-.527-.528-.527-.291 0-.527.236-.527.527v2.32H15.12v-2.32c0-.29-.236-.527-.527-.527-.291 0-.528.236-.528.527v2.32H12.31v-2.32c0-.29-.237-.527-.528-.527-.291 0-.527.236-.527.527v2.32h-.352c-.581 0-1.054.474-1.054 1.055v.352h-2.32c-.292 0-.528.236-.528.527 0 .291.236.528.527.528h2.32v1.757h-2.32c-.29 0-.527.237-.527.528 0 .291.236.527.527.527h2.32v1.758h-2.32c-.29 0-.527.236-.527.527 0 .291.236.528.527.528h2.32v1.757h-2.32c-.29 0-.527.237-.527.528 0 .291.236.527.527.527h2.32v.352c0 .581.474 1.054 1.055 1.054h.352v2.32c0 .292.236.528.527.528.291 0 .528-.236.528-.527v-2.32h1.757v2.32c0 .29.237.527.528.527.291 0 .527-.236.527-.527v-2.32h1.758v2.32c0 .29.236.527.527.527.291 0 .528-.236.528-.527v-2.32h1.757v2.32c0 .29.237.527.528.527.291 0 .527-.236.527-.527v-2.32h.352c.581 0 1.054-.474 1.054-1.055v-.352h2.32c.292 0 .528-.236.528-.527 0-.291-.236-.528-.527-.528h-2.32v-1.757h2.32c.29 0 .527-.237.527-.528 0-.291-.236-.527-.527-.527h-2.32V15.12h2.32zm-3.375 5.977H10.902V10.902h10.196c0 10.479.003 10.196 0 10.196z"/>
                <path fill-opacity=".8" fill-rule="nonzero" d="M18.13 12.815c-.098-.1-.232-.155-.372-.155h-3.516c-.14 0-.274.056-.373.155l-1.054 1.054c-.1.1-.155.233-.155.373v3.516c0 .14.056.274.155.373l1.054 1.054c.1.1.233.155.373.155h3.516c.14 0 .274-.056.373-.155l1.054-1.054c.1-.1.155-.233.155-.373v-3.516c0-.14-.056-.274-.155-.373l-1.054-1.054zm.155 4.724l-.746.746h-3.078l-.746-.746v-3.078l.746-.746h3.078l.746.746v3.078z"/>
            </g>
        </g>
    </g>
</svg>
