<svg xmlns="http://www.w3.org/2000/svg" width="32" height="32" viewBox="0 0 32 32">
    <g fill="none" fill-rule="evenodd">
        <g>
            <g transform="translate(-114 -287) translate(114 287)">
                <circle cx="16" cy="16" r="16" fill="#000" fill-opacity=".04"/>
                <path fill="#333" fill-rule="nonzero" d="M6.5 9.837c0-.738.559-1.337 1.248-1.337h16.504c.69 0 1.248.599 1.248 1.337v10.696c0 .739-.559 1.337-1.248 1.337H7.748c-.69 0-1.248-.598-1.248-1.337V9.837zm1.017 10.545c0 .239.181.432.405.432H24c.224 0 .406-.193.406-.432V9.989c0-.24-.182-.433-.406-.433H7.922c-.224 0-.405.194-.405.433v10.393z"/>
                <path stroke="#323232" d="M21.055 11.28L23.166 11.28 23.166 13.391M11.356 19.092L9.244 19.092 9.244 16.981M9.244 19.092L11.888 16.449M23.166 11.28L20.567 13.878"/>
                <rect width="5.63" height="1.056" x="13.185" y="23.278" fill="#000" fill-opacity=".8" rx=".528"/>
            </g>
        </g>
    </g>
</svg>
