<svg width="263" height="77" viewBox="0 0 263 77" fill="none" xmlns="http://www.w3.org/2000/svg">
<g filter="url(#filter0_f_228_33)">
<path d="M33.8438 23.9932V56H30.6943V23.9932H22.3447V20.9902H42.1934V23.9932H33.8438ZM60.9189 49.1396C60.9189 50.1488 60.7236 51.1009 60.333 51.9961C59.9587 52.8913 59.4378 53.6725 58.7705 54.3398C58.1032 55.0072 57.3219 55.5361 56.4268 55.9268C55.5316 56.3011 54.5794 56.4883 53.5703 56.4883H51.5684C50.5592 56.4883 49.6071 56.3011 48.7119 55.9268C47.8167 55.5361 47.0355 55.0072 46.3682 54.3398C45.7008 53.6725 45.1719 52.8913 44.7812 51.9961C44.4069 51.1009 44.2197 50.1488 44.2197 49.1396V37.8604C44.2197 36.8512 44.4069 35.8991 44.7812 35.0039C45.1719 34.1087 45.7008 33.3275 46.3682 32.6602C47.0355 31.9928 47.8167 31.472 48.7119 31.0977C49.6071 30.707 50.5592 30.5117 51.5684 30.5117H53.5703C54.5794 30.5117 55.5316 30.707 56.4268 31.0977C57.3219 31.472 58.1032 31.9928 58.7705 32.6602C59.4378 33.3275 59.9587 34.1087 60.333 35.0039C60.7236 35.8991 60.9189 36.8512 60.9189 37.8604V43.7441H47.2227V49.3105C47.2227 49.9128 47.3366 50.4824 47.5645 51.0195C47.7923 51.5404 48.1016 51.9961 48.4922 52.3867C48.8828 52.7773 49.3385 53.0866 49.8594 53.3145C50.3965 53.5423 50.9661 53.6562 51.5684 53.6562H53.5703C54.1725 53.6562 54.734 53.5423 55.2549 53.3145C55.792 53.0866 56.2559 52.7773 56.6465 52.3867C57.0371 51.9961 57.3464 51.5404 57.5742 51.0195C57.8021 50.4824 57.916 49.9128 57.916 49.3105V47.6504L60.9189 48.1387V49.1396ZM57.916 37.6895C57.916 37.0872 57.8021 36.5257 57.5742 36.0049C57.3464 35.4678 57.0371 35.0039 56.6465 34.6133C56.2559 34.2227 55.792 33.9134 55.2549 33.6855C54.734 33.4577 54.1725 33.3438 53.5703 33.3438H51.5684C50.9661 33.3438 50.3965 33.4577 49.8594 33.6855C49.3385 33.9134 48.8828 34.2227 48.4922 34.6133C48.1016 35.0039 47.7923 35.4678 47.5645 36.0049C47.3366 36.5257 47.2227 37.0872 47.2227 37.6895V41.4004H57.916V37.6895ZM83.624 49.1396C83.624 50.1488 83.4287 51.1009 83.0381 51.9961C82.6637 52.8913 82.1429 53.6725 81.4756 54.3398C80.8083 55.0072 80.027 55.5361 79.1318 55.9268C78.2367 56.3011 77.2845 56.4883 76.2754 56.4883H74.2734C73.2643 56.4883 72.3122 56.3011 71.417 55.9268C70.5218 55.5361 69.7406 55.0072 69.0732 54.3398C68.4059 53.6725 67.877 52.8913 67.4863 51.9961C67.112 51.1009 66.9248 50.1488 66.9248 49.1396V37.8604C66.9248 36.8512 67.112 35.8991 67.4863 35.0039C67.877 34.1087 68.4059 33.3275 69.0732 32.6602C69.7406 31.9928 70.5218 31.472 71.417 31.0977C72.3122 30.707 73.2643 30.5117 74.2734 30.5117H76.2754C77.2845 30.5117 78.2367 30.707 79.1318 31.0977C80.027 31.472 80.8083 31.9928 81.4756 32.6602C82.1429 33.3275 82.6637 34.1087 83.0381 35.0039C83.4287 35.8991 83.624 36.8512 83.624 37.8604V38.8613L80.6211 39.3496V37.6895C80.6211 37.0872 80.5072 36.5257 80.2793 36.0049C80.0514 35.4678 79.7422 35.0039 79.3516 34.6133C78.9609 34.2227 78.4971 33.9134 77.96 33.6855C77.4391 33.4577 76.8776 33.3438 76.2754 33.3438H74.2734C73.6712 33.3438 73.1016 33.4577 72.5645 33.6855C72.0436 33.9134 71.5879 34.2227 71.1973 34.6133C70.8066 35.0039 70.4974 35.4678 70.2695 36.0049C70.0417 36.5257 69.9277 37.0872 69.9277 37.6895V49.3105C69.9277 49.9128 70.0417 50.4824 70.2695 51.0195C70.4974 51.5404 70.8066 51.9961 71.1973 52.3867C71.5879 52.7773 72.0436 53.0866 72.5645 53.3145C73.1016 53.5423 73.6712 53.6562 74.2734 53.6562H76.2754C76.8776 53.6562 77.4391 53.5423 77.96 53.3145C78.4971 53.0866 78.9609 52.7773 79.3516 52.3867C79.7422 51.9961 80.0514 51.5404 80.2793 51.0195C80.5072 50.4824 80.6211 49.9128 80.6211 49.3105V47.6504L83.624 48.1387V49.1396ZM103.326 56V37.6895C103.326 37.0872 103.212 36.5257 102.984 36.0049C102.757 35.4678 102.447 35.0039 102.057 34.6133C101.666 34.2227 101.202 33.9134 100.665 33.6855C100.144 33.4577 99.5827 33.3438 98.9805 33.3438H96.9785C96.3763 33.3438 95.8066 33.4577 95.2695 33.6855C94.7487 33.9134 94.293 34.2227 93.9023 34.6133C93.5117 35.0039 93.2025 35.4678 92.9746 36.0049C92.7467 36.5257 92.6328 37.0872 92.6328 37.6895V56H89.6299V20.9902H92.6328V33.0996C93.3164 32.2858 94.1383 31.651 95.0986 31.1953C96.0589 30.7396 97.1006 30.5117 98.2236 30.5117H98.9805C99.9896 30.5117 100.942 30.707 101.837 31.0977C102.732 31.472 103.513 31.9928 104.181 32.6602C104.848 33.3275 105.369 34.1087 105.743 35.0039C106.134 35.8991 106.329 36.8512 106.329 37.8604V56H103.326ZM134.894 56V32.001L134.674 33.4902L126.544 56H124.884L116.681 33.4902L116.485 32.001V56H113.336V20.9902H114.972L125.592 49.7012L125.689 50.9951L125.787 49.7012L136.383 20.9902H138.043V56H134.894ZM160.26 56L158.6 53.5098C157.916 54.4049 157.062 55.1292 156.036 55.6826C155.011 56.2197 153.888 56.4883 152.667 56.4883H151.91C150.901 56.4883 149.949 56.3011 149.054 55.9268C148.159 55.5361 147.377 55.0072 146.71 54.3398C146.043 53.6725 145.514 52.8913 145.123 51.9961C144.749 51.1009 144.562 50.1488 144.562 49.1396V48.8955C144.562 47.8864 144.749 46.9342 145.123 46.0391C145.514 45.1439 146.043 44.3626 146.71 43.6953C147.377 43.028 148.159 42.5072 149.054 42.1328C149.949 41.7422 150.901 41.5469 151.91 41.5469H158.258V37.6895C158.258 37.0872 158.144 36.5257 157.916 36.0049C157.688 35.4678 157.379 35.0039 156.988 34.6133C156.598 34.2227 156.134 33.9134 155.597 33.6855C155.076 33.4577 154.514 33.3438 153.912 33.3438H152.154C151.552 33.3438 150.982 33.4577 150.445 33.6855C149.924 33.9134 149.469 34.2227 149.078 34.6133C148.688 35.0039 148.378 35.4678 148.15 36.0049C147.923 36.5257 147.809 37.0872 147.809 37.6895V38.5928L144.806 38.1045V37.8604C144.806 36.8512 144.993 35.8991 145.367 35.0039C145.758 34.1087 146.287 33.3275 146.954 32.6602C147.621 31.9928 148.403 31.472 149.298 31.0977C150.193 30.707 151.145 30.5117 152.154 30.5117H153.912C154.921 30.5117 155.873 30.707 156.769 31.0977C157.664 31.472 158.445 31.9928 159.112 32.6602C159.78 33.3275 160.3 34.1087 160.675 35.0039C161.065 35.8991 161.261 36.8512 161.261 37.8604V56H160.26ZM158.258 43.8906H151.91C151.308 43.8906 150.738 44.0046 150.201 44.2324C149.68 44.4603 149.225 44.7777 148.834 45.1846C148.443 45.5752 148.134 46.0391 147.906 46.5762C147.678 47.097 147.564 47.6585 147.564 48.2607V49.3105C147.564 49.9128 147.678 50.4824 147.906 51.0195C148.134 51.5404 148.443 51.9961 148.834 52.3867C149.225 52.7773 149.68 53.0866 150.201 53.3145C150.738 53.5423 151.308 53.6562 151.91 53.6562H153.912C154.514 53.6562 155.076 53.5423 155.597 53.3145C156.134 53.0866 156.598 52.7773 156.988 52.3867C157.379 51.9961 157.688 51.5404 157.916 51.0195C158.144 50.4824 158.258 49.9128 158.258 49.3105V43.8906ZM184.454 49.6523C184.454 50.6615 184.251 51.5892 183.844 52.4355C183.437 53.2656 182.883 53.9818 182.184 54.584C181.484 55.1862 180.67 55.6582 179.742 56C178.831 56.3255 177.87 56.4883 176.861 56.4883H174.859C173.85 56.4883 172.882 56.3011 171.954 55.9268C171.043 55.5361 170.237 55.0072 169.537 54.3398C168.854 53.6725 168.3 52.8913 167.877 51.9961C167.47 51.1009 167.267 50.1488 167.267 49.1396V48.1387L170.27 47.6504V49.3105C170.27 49.9128 170.392 50.4824 170.636 51.0195C170.896 51.5404 171.238 51.9961 171.661 52.3867C172.084 52.7773 172.573 53.0866 173.126 53.3145C173.679 53.5423 174.257 53.6562 174.859 53.6562H176.861C177.464 53.6562 178.041 53.5667 178.595 53.3877C179.148 53.2087 179.636 52.9564 180.06 52.6309C180.499 52.2891 180.841 51.8822 181.085 51.4102C181.345 50.9382 181.476 50.401 181.476 49.7988C181.476 48.9036 181.28 48.1712 180.89 47.6016C180.499 47.0319 179.978 46.5599 179.327 46.1855C178.692 45.7949 177.96 45.4775 177.13 45.2334C176.316 44.973 175.478 44.7207 174.615 44.4766C173.753 44.2161 172.906 43.9232 172.076 43.5977C171.262 43.2721 170.53 42.849 169.879 42.3281C169.244 41.791 168.731 41.1237 168.341 40.3262C167.95 39.5286 167.755 38.5358 167.755 37.3477C167.755 36.3385 167.95 35.4189 168.341 34.5889C168.731 33.7425 169.26 33.0182 169.928 32.416C170.595 31.8138 171.368 31.3499 172.247 31.0244C173.142 30.6826 174.094 30.5117 175.104 30.5117H176.861C177.87 30.5117 178.823 30.707 179.718 31.0977C180.613 31.472 181.394 31.9928 182.062 32.6602C182.729 33.3275 183.25 34.1087 183.624 35.0039C184.015 35.8991 184.21 36.8512 184.21 37.8604V37.958L181.207 38.4463V37.6895C181.207 37.0872 181.093 36.5257 180.865 36.0049C180.637 35.4678 180.328 35.0039 179.938 34.6133C179.547 34.2227 179.083 33.9134 178.546 33.6855C178.025 33.4577 177.464 33.3438 176.861 33.3438H175.104C174.501 33.3438 173.932 33.4333 173.395 33.6123C172.874 33.7913 172.418 34.0518 172.027 34.3936C171.637 34.7191 171.327 35.1178 171.1 35.5898C170.872 36.0618 170.758 36.599 170.758 37.2012C170.758 38.0638 170.953 38.7718 171.344 39.3252C171.734 39.8623 172.247 40.318 172.882 40.6924C173.533 41.0667 174.265 41.3841 175.079 41.6445C175.909 41.8887 176.747 42.1491 177.594 42.4258C178.456 42.6862 179.295 42.9873 180.108 43.3291C180.938 43.6709 181.671 44.1104 182.306 44.6475C182.957 45.1846 183.478 45.86 183.868 46.6738C184.259 47.4714 184.454 48.4642 184.454 49.6523ZM199.322 56C198.411 56 197.548 55.8291 196.734 55.4873C195.937 55.1455 195.237 54.6735 194.635 54.0713C194.049 53.4691 193.577 52.7692 193.219 51.9717C192.877 51.1742 192.706 50.3197 192.706 49.4082V33.8564H188.214V31H192.706V24.9941L195.709 24.5059V31H202.057V33.8564H195.709V49.5547C195.709 50.0592 195.799 50.5312 195.978 50.9707C196.173 51.3939 196.433 51.7682 196.759 52.0938C197.084 52.4193 197.467 52.6797 197.906 52.875C198.346 53.054 198.818 53.1436 199.322 53.1436H202.057V56H199.322ZM224.298 49.1396C224.298 50.1488 224.103 51.1009 223.712 51.9961C223.338 52.8913 222.817 53.6725 222.149 54.3398C221.482 55.0072 220.701 55.5361 219.806 55.9268C218.91 56.3011 217.958 56.4883 216.949 56.4883H214.947C213.938 56.4883 212.986 56.3011 212.091 55.9268C211.196 55.5361 210.414 55.0072 209.747 54.3398C209.08 53.6725 208.551 52.8913 208.16 51.9961C207.786 51.1009 207.599 50.1488 207.599 49.1396V37.8604C207.599 36.8512 207.786 35.8991 208.16 35.0039C208.551 34.1087 209.08 33.3275 209.747 32.6602C210.414 31.9928 211.196 31.472 212.091 31.0977C212.986 30.707 213.938 30.5117 214.947 30.5117H216.949C217.958 30.5117 218.91 30.707 219.806 31.0977C220.701 31.472 221.482 31.9928 222.149 32.6602C222.817 33.3275 223.338 34.1087 223.712 35.0039C224.103 35.8991 224.298 36.8512 224.298 37.8604V43.7441H210.602V49.3105C210.602 49.9128 210.715 50.4824 210.943 51.0195C211.171 51.5404 211.48 51.9961 211.871 52.3867C212.262 52.7773 212.717 53.0866 213.238 53.3145C213.775 53.5423 214.345 53.6562 214.947 53.6562H216.949C217.551 53.6562 218.113 53.5423 218.634 53.3145C219.171 53.0866 219.635 52.7773 220.025 52.3867C220.416 51.9961 220.725 51.5404 220.953 51.0195C221.181 50.4824 221.295 49.9128 221.295 49.3105V47.6504L224.298 48.1387V49.1396ZM221.295 37.6895C221.295 37.0872 221.181 36.5257 220.953 36.0049C220.725 35.4678 220.416 35.0039 220.025 34.6133C219.635 34.2227 219.171 33.9134 218.634 33.6855C218.113 33.4577 217.551 33.3438 216.949 33.3438H214.947C214.345 33.3438 213.775 33.4577 213.238 33.6855C212.717 33.9134 212.262 34.2227 211.871 34.6133C211.48 35.0039 211.171 35.4678 210.943 36.0049C210.715 36.5257 210.602 37.0872 210.602 37.6895V41.4004H221.295V37.6895ZM237.652 33.8564C237.05 33.8564 236.48 33.9704 235.943 34.1982C235.423 34.4261 234.967 34.7354 234.576 35.126C234.186 35.5166 233.876 35.9805 233.648 36.5176C233.421 37.0384 233.307 37.5999 233.307 38.2021V56H230.304V31H231.305L232.94 33.5391C233.624 32.6113 234.479 31.8789 235.504 31.3418C236.546 30.7884 237.677 30.5117 238.897 30.5117H240.655V33.8564H237.652Z" fill="white"/>
</g>
<path d="M33.8438 23.9932V56H30.6943V23.9932H22.3447V20.9902H42.1934V23.9932H33.8438ZM60.9189 49.1396C60.9189 50.1488 60.7236 51.1009 60.333 51.9961C59.9587 52.8913 59.4378 53.6725 58.7705 54.3398C58.1032 55.0072 57.3219 55.5361 56.4268 55.9268C55.5316 56.3011 54.5794 56.4883 53.5703 56.4883H51.5684C50.5592 56.4883 49.6071 56.3011 48.7119 55.9268C47.8167 55.5361 47.0355 55.0072 46.3682 54.3398C45.7008 53.6725 45.1719 52.8913 44.7812 51.9961C44.4069 51.1009 44.2197 50.1488 44.2197 49.1396V37.8604C44.2197 36.8512 44.4069 35.8991 44.7812 35.0039C45.1719 34.1087 45.7008 33.3275 46.3682 32.6602C47.0355 31.9928 47.8167 31.472 48.7119 31.0977C49.6071 30.707 50.5592 30.5117 51.5684 30.5117H53.5703C54.5794 30.5117 55.5316 30.707 56.4268 31.0977C57.3219 31.472 58.1032 31.9928 58.7705 32.6602C59.4378 33.3275 59.9587 34.1087 60.333 35.0039C60.7236 35.8991 60.9189 36.8512 60.9189 37.8604V43.7441H47.2227V49.3105C47.2227 49.9128 47.3366 50.4824 47.5645 51.0195C47.7923 51.5404 48.1016 51.9961 48.4922 52.3867C48.8828 52.7773 49.3385 53.0866 49.8594 53.3145C50.3965 53.5423 50.9661 53.6562 51.5684 53.6562H53.5703C54.1725 53.6562 54.734 53.5423 55.2549 53.3145C55.792 53.0866 56.2559 52.7773 56.6465 52.3867C57.0371 51.9961 57.3464 51.5404 57.5742 51.0195C57.8021 50.4824 57.916 49.9128 57.916 49.3105V47.6504L60.9189 48.1387V49.1396ZM57.916 37.6895C57.916 37.0872 57.8021 36.5257 57.5742 36.0049C57.3464 35.4678 57.0371 35.0039 56.6465 34.6133C56.2559 34.2227 55.792 33.9134 55.2549 33.6855C54.734 33.4577 54.1725 33.3438 53.5703 33.3438H51.5684C50.9661 33.3438 50.3965 33.4577 49.8594 33.6855C49.3385 33.9134 48.8828 34.2227 48.4922 34.6133C48.1016 35.0039 47.7923 35.4678 47.5645 36.0049C47.3366 36.5257 47.2227 37.0872 47.2227 37.6895V41.4004H57.916V37.6895ZM83.624 49.1396C83.624 50.1488 83.4287 51.1009 83.0381 51.9961C82.6637 52.8913 82.1429 53.6725 81.4756 54.3398C80.8083 55.0072 80.027 55.5361 79.1318 55.9268C78.2367 56.3011 77.2845 56.4883 76.2754 56.4883H74.2734C73.2643 56.4883 72.3122 56.3011 71.417 55.9268C70.5218 55.5361 69.7406 55.0072 69.0732 54.3398C68.4059 53.6725 67.877 52.8913 67.4863 51.9961C67.112 51.1009 66.9248 50.1488 66.9248 49.1396V37.8604C66.9248 36.8512 67.112 35.8991 67.4863 35.0039C67.877 34.1087 68.4059 33.3275 69.0732 32.6602C69.7406 31.9928 70.5218 31.472 71.417 31.0977C72.3122 30.707 73.2643 30.5117 74.2734 30.5117H76.2754C77.2845 30.5117 78.2367 30.707 79.1318 31.0977C80.027 31.472 80.8083 31.9928 81.4756 32.6602C82.1429 33.3275 82.6637 34.1087 83.0381 35.0039C83.4287 35.8991 83.624 36.8512 83.624 37.8604V38.8613L80.6211 39.3496V37.6895C80.6211 37.0872 80.5072 36.5257 80.2793 36.0049C80.0514 35.4678 79.7422 35.0039 79.3516 34.6133C78.9609 34.2227 78.4971 33.9134 77.96 33.6855C77.4391 33.4577 76.8776 33.3438 76.2754 33.3438H74.2734C73.6712 33.3438 73.1016 33.4577 72.5645 33.6855C72.0436 33.9134 71.5879 34.2227 71.1973 34.6133C70.8066 35.0039 70.4974 35.4678 70.2695 36.0049C70.0417 36.5257 69.9277 37.0872 69.9277 37.6895V49.3105C69.9277 49.9128 70.0417 50.4824 70.2695 51.0195C70.4974 51.5404 70.8066 51.9961 71.1973 52.3867C71.5879 52.7773 72.0436 53.0866 72.5645 53.3145C73.1016 53.5423 73.6712 53.6562 74.2734 53.6562H76.2754C76.8776 53.6562 77.4391 53.5423 77.96 53.3145C78.4971 53.0866 78.9609 52.7773 79.3516 52.3867C79.7422 51.9961 80.0514 51.5404 80.2793 51.0195C80.5072 50.4824 80.6211 49.9128 80.6211 49.3105V47.6504L83.624 48.1387V49.1396ZM103.326 56V37.6895C103.326 37.0872 103.212 36.5257 102.984 36.0049C102.757 35.4678 102.447 35.0039 102.057 34.6133C101.666 34.2227 101.202 33.9134 100.665 33.6855C100.144 33.4577 99.5827 33.3438 98.9805 33.3438H96.9785C96.3763 33.3438 95.8066 33.4577 95.2695 33.6855C94.7487 33.9134 94.293 34.2227 93.9023 34.6133C93.5117 35.0039 93.2025 35.4678 92.9746 36.0049C92.7467 36.5257 92.6328 37.0872 92.6328 37.6895V56H89.6299V20.9902H92.6328V33.0996C93.3164 32.2858 94.1383 31.651 95.0986 31.1953C96.0589 30.7396 97.1006 30.5117 98.2236 30.5117H98.9805C99.9896 30.5117 100.942 30.707 101.837 31.0977C102.732 31.472 103.513 31.9928 104.181 32.6602C104.848 33.3275 105.369 34.1087 105.743 35.0039C106.134 35.8991 106.329 36.8512 106.329 37.8604V56H103.326ZM134.894 56V32.001L134.674 33.4902L126.544 56H124.884L116.681 33.4902L116.485 32.001V56H113.336V20.9902H114.972L125.592 49.7012L125.689 50.9951L125.787 49.7012L136.383 20.9902H138.043V56H134.894ZM160.26 56L158.6 53.5098C157.916 54.4049 157.062 55.1292 156.036 55.6826C155.011 56.2197 153.888 56.4883 152.667 56.4883H151.91C150.901 56.4883 149.949 56.3011 149.054 55.9268C148.159 55.5361 147.377 55.0072 146.71 54.3398C146.043 53.6725 145.514 52.8913 145.123 51.9961C144.749 51.1009 144.562 50.1488 144.562 49.1396V48.8955C144.562 47.8864 144.749 46.9342 145.123 46.0391C145.514 45.1439 146.043 44.3626 146.71 43.6953C147.377 43.028 148.159 42.5072 149.054 42.1328C149.949 41.7422 150.901 41.5469 151.91 41.5469H158.258V37.6895C158.258 37.0872 158.144 36.5257 157.916 36.0049C157.688 35.4678 157.379 35.0039 156.988 34.6133C156.598 34.2227 156.134 33.9134 155.597 33.6855C155.076 33.4577 154.514 33.3438 153.912 33.3438H152.154C151.552 33.3438 150.982 33.4577 150.445 33.6855C149.924 33.9134 149.469 34.2227 149.078 34.6133C148.688 35.0039 148.378 35.4678 148.15 36.0049C147.923 36.5257 147.809 37.0872 147.809 37.6895V38.5928L144.806 38.1045V37.8604C144.806 36.8512 144.993 35.8991 145.367 35.0039C145.758 34.1087 146.287 33.3275 146.954 32.6602C147.621 31.9928 148.403 31.472 149.298 31.0977C150.193 30.707 151.145 30.5117 152.154 30.5117H153.912C154.921 30.5117 155.873 30.707 156.769 31.0977C157.664 31.472 158.445 31.9928 159.112 32.6602C159.78 33.3275 160.3 34.1087 160.675 35.0039C161.065 35.8991 161.261 36.8512 161.261 37.8604V56H160.26ZM158.258 43.8906H151.91C151.308 43.8906 150.738 44.0046 150.201 44.2324C149.68 44.4603 149.225 44.7777 148.834 45.1846C148.443 45.5752 148.134 46.0391 147.906 46.5762C147.678 47.097 147.564 47.6585 147.564 48.2607V49.3105C147.564 49.9128 147.678 50.4824 147.906 51.0195C148.134 51.5404 148.443 51.9961 148.834 52.3867C149.225 52.7773 149.68 53.0866 150.201 53.3145C150.738 53.5423 151.308 53.6562 151.91 53.6562H153.912C154.514 53.6562 155.076 53.5423 155.597 53.3145C156.134 53.0866 156.598 52.7773 156.988 52.3867C157.379 51.9961 157.688 51.5404 157.916 51.0195C158.144 50.4824 158.258 49.9128 158.258 49.3105V43.8906ZM184.454 49.6523C184.454 50.6615 184.251 51.5892 183.844 52.4355C183.437 53.2656 182.883 53.9818 182.184 54.584C181.484 55.1862 180.67 55.6582 179.742 56C178.831 56.3255 177.87 56.4883 176.861 56.4883H174.859C173.85 56.4883 172.882 56.3011 171.954 55.9268C171.043 55.5361 170.237 55.0072 169.537 54.3398C168.854 53.6725 168.3 52.8913 167.877 51.9961C167.47 51.1009 167.267 50.1488 167.267 49.1396V48.1387L170.27 47.6504V49.3105C170.27 49.9128 170.392 50.4824 170.636 51.0195C170.896 51.5404 171.238 51.9961 171.661 52.3867C172.084 52.7773 172.573 53.0866 173.126 53.3145C173.679 53.5423 174.257 53.6562 174.859 53.6562H176.861C177.464 53.6562 178.041 53.5667 178.595 53.3877C179.148 53.2087 179.636 52.9564 180.06 52.6309C180.499 52.2891 180.841 51.8822 181.085 51.4102C181.345 50.9382 181.476 50.401 181.476 49.7988C181.476 48.9036 181.28 48.1712 180.89 47.6016C180.499 47.0319 179.978 46.5599 179.327 46.1855C178.692 45.7949 177.96 45.4775 177.13 45.2334C176.316 44.973 175.478 44.7207 174.615 44.4766C173.753 44.2161 172.906 43.9232 172.076 43.5977C171.262 43.2721 170.53 42.849 169.879 42.3281C169.244 41.791 168.731 41.1237 168.341 40.3262C167.95 39.5286 167.755 38.5358 167.755 37.3477C167.755 36.3385 167.95 35.4189 168.341 34.5889C168.731 33.7425 169.26 33.0182 169.928 32.416C170.595 31.8138 171.368 31.3499 172.247 31.0244C173.142 30.6826 174.094 30.5117 175.104 30.5117H176.861C177.87 30.5117 178.823 30.707 179.718 31.0977C180.613 31.472 181.394 31.9928 182.062 32.6602C182.729 33.3275 183.25 34.1087 183.624 35.0039C184.015 35.8991 184.21 36.8512 184.21 37.8604V37.958L181.207 38.4463V37.6895C181.207 37.0872 181.093 36.5257 180.865 36.0049C180.637 35.4678 180.328 35.0039 179.938 34.6133C179.547 34.2227 179.083 33.9134 178.546 33.6855C178.025 33.4577 177.464 33.3438 176.861 33.3438H175.104C174.501 33.3438 173.932 33.4333 173.395 33.6123C172.874 33.7913 172.418 34.0518 172.027 34.3936C171.637 34.7191 171.327 35.1178 171.1 35.5898C170.872 36.0618 170.758 36.599 170.758 37.2012C170.758 38.0638 170.953 38.7718 171.344 39.3252C171.734 39.8623 172.247 40.318 172.882 40.6924C173.533 41.0667 174.265 41.3841 175.079 41.6445C175.909 41.8887 176.747 42.1491 177.594 42.4258C178.456 42.6862 179.295 42.9873 180.108 43.3291C180.938 43.6709 181.671 44.1104 182.306 44.6475C182.957 45.1846 183.478 45.86 183.868 46.6738C184.259 47.4714 184.454 48.4642 184.454 49.6523ZM199.322 56C198.411 56 197.548 55.8291 196.734 55.4873C195.937 55.1455 195.237 54.6735 194.635 54.0713C194.049 53.4691 193.577 52.7692 193.219 51.9717C192.877 51.1742 192.706 50.3197 192.706 49.4082V33.8564H188.214V31H192.706V24.9941L195.709 24.5059V31H202.057V33.8564H195.709V49.5547C195.709 50.0592 195.799 50.5312 195.978 50.9707C196.173 51.3939 196.433 51.7682 196.759 52.0938C197.084 52.4193 197.467 52.6797 197.906 52.875C198.346 53.054 198.818 53.1436 199.322 53.1436H202.057V56H199.322ZM224.298 49.1396C224.298 50.1488 224.103 51.1009 223.712 51.9961C223.338 52.8913 222.817 53.6725 222.149 54.3398C221.482 55.0072 220.701 55.5361 219.806 55.9268C218.91 56.3011 217.958 56.4883 216.949 56.4883H214.947C213.938 56.4883 212.986 56.3011 212.091 55.9268C211.196 55.5361 210.414 55.0072 209.747 54.3398C209.08 53.6725 208.551 52.8913 208.16 51.9961C207.786 51.1009 207.599 50.1488 207.599 49.1396V37.8604C207.599 36.8512 207.786 35.8991 208.16 35.0039C208.551 34.1087 209.08 33.3275 209.747 32.6602C210.414 31.9928 211.196 31.472 212.091 31.0977C212.986 30.707 213.938 30.5117 214.947 30.5117H216.949C217.958 30.5117 218.91 30.707 219.806 31.0977C220.701 31.472 221.482 31.9928 222.149 32.6602C222.817 33.3275 223.338 34.1087 223.712 35.0039C224.103 35.8991 224.298 36.8512 224.298 37.8604V43.7441H210.602V49.3105C210.602 49.9128 210.715 50.4824 210.943 51.0195C211.171 51.5404 211.48 51.9961 211.871 52.3867C212.262 52.7773 212.717 53.0866 213.238 53.3145C213.775 53.5423 214.345 53.6562 214.947 53.6562H216.949C217.551 53.6562 218.113 53.5423 218.634 53.3145C219.171 53.0866 219.635 52.7773 220.025 52.3867C220.416 51.9961 220.725 51.5404 220.953 51.0195C221.181 50.4824 221.295 49.9128 221.295 49.3105V47.6504L224.298 48.1387V49.1396ZM221.295 37.6895C221.295 37.0872 221.181 36.5257 220.953 36.0049C220.725 35.4678 220.416 35.0039 220.025 34.6133C219.635 34.2227 219.171 33.9134 218.634 33.6855C218.113 33.4577 217.551 33.3438 216.949 33.3438H214.947C214.345 33.3438 213.775 33.4577 213.238 33.6855C212.717 33.9134 212.262 34.2227 211.871 34.6133C211.48 35.0039 211.171 35.4678 210.943 36.0049C210.715 36.5257 210.602 37.0872 210.602 37.6895V41.4004H221.295V37.6895ZM237.652 33.8564C237.05 33.8564 236.48 33.9704 235.943 34.1982C235.423 34.4261 234.967 34.7354 234.576 35.126C234.186 35.5166 233.876 35.9805 233.648 36.5176C233.421 37.0384 233.307 37.5999 233.307 38.2021V56H230.304V31H231.305L232.94 33.5391C233.624 32.6113 234.479 31.8789 235.504 31.3418C236.546 30.7884 237.677 30.5117 238.897 30.5117H240.655V33.8564H237.652Z" fill="white"/>
<defs>
<filter id="filter0_f_228_33" x="2.34473" y="0.990234" width="258.311" height="75.498" filterUnits="userSpaceOnUse" color-interpolation-filters="sRGB">
<feFlood flood-opacity="0" result="BackgroundImageFix"/>
<feBlend mode="normal" in="SourceGraphic" in2="BackgroundImageFix" result="shape"/>
<feGaussianBlur stdDeviation="10" result="effect1_foregroundBlur_228_33"/>
</filter>
</defs>
</svg>
